PathFileType	4	(X/Y/Z)	/Users/itak/Documents/Research/Walk-IL/dataset/trc/00121_00007.trc
DataRate	CameraRate	NumFrames	NumMarkers	Units	OrigDataRate	OrigDataStartFrame	OrigNumFrames
100.000000	100.000000	4	53	mm	100.000000	270	722
Frame#	Time	RPSI			LPSI			L3			STRN			T10			C7			CLAV			RBAK			LBAK			LSHO			LUPA			LAEL			LAOL			LWTS			LWPS			LFRA			LIFD			LHPS			LHTS			RSHO			RUPA			RAEL			RAOL			RWTS			RWPS			RFRA			RIFD			RHTS			RHPS			RBHD			LFHD			RFHD			LBHD			LHIP			RHIP			RASI			LASI			LKNE			LTHI			LANK			LTIP			LTOE			LMT1			LMT5			LHEE			RKNE			RTHI			RANK			RTIP			RTOE			RMT1			RMT5			RHEE			
		X1	Y1	Z1	X2	Y2	Z2	X3	Y3	Z3	X4	Y4	Z4	X5	Y5	Z5	X6	Y6	Z6	X7	Y7	Z7	X8	Y8	Z8	X9	Y9	Z9	X10	Y10	Z10	X11	Y11	Z11	X12	Y12	Z12	X13	Y13	Z13	X14	Y14	Z14	X15	Y15	Z15	X16	Y16	Z16	X17	Y17	Z17	X18	Y18	Z18	X19	Y19	Z19	X20	Y20	Z20	X21	Y21	Z21	X22	Y22	Z22	X23	Y23	Z23	X24	Y24	Z24	X25	Y25	Z25	X26	Y26	Z26	X27	Y27	Z27	X28	Y28	Z28	X29	Y29	Z29	X30	Y30	Z30	X31	Y31	Z31	X32	Y32	Z32	X33	Y33	Z33	X34	Y34	Z34	X35	Y35	Z35	X36	Y36	Z36	X37	Y37	Z37	X38	Y38	Z38	X39	Y39	Z39	X40	Y40	Z40	X41	Y41	Z41	X42	Y42	Z42	X43	Y43	Z43	X44	Y44	Z44	X45	Y45	Z45	X46	Y46	Z46	X47	Y47	Z47	X48	Y48	Z48	X49	Y49	Z49	X50	Y50	Z50	X51	Y51	Z51	X52	Y52	Z52	X53	Y53	Z53	

271	2.7	1012.763549804688	1106.414428710938	-190.4461822509766	882.7300415039062	1108.759399414062	-152.4957427978516	946.4462280273438	1146.584350585938	-164.3673400878906	875.9185791015625	1343.552124023438	-377.4965209960938	952.1790161132812	1297.5537109375	-136.173828125	912.474609375	1587.238647460938	-161.0038146972656	874.8924560546875	1478.44970703125	-340.1274719238281	1022.858337402344	1410.98193359375	-133.7970581054688	819.4432983398438	1560.05908203125	-124.971923828125	731.8341064453125	1541.524780273438	-187.6765289306641	677.0527954101562	1409.056640625	-147.1837768554688	654.2533569335938	1191.374267578125	-156.0754852294922	729.0357055664062	1176.431274414062	-109.9340667724609	661.1962280273438	953.7179565429688	-300.1058654785156	663.1007080078125	914.3212280273438	-219.6388702392578	643.0269775390625	1077.978149414062	-184.5760498046875	678.4285888671875	767.19482421875	-351.7928771972656	652.4613037109375	844.9065551757812	-259.7915649414062	645.0232543945312	867.4017333984375	-325.8639526367188	1070.509521484375	1579.646362304688	-265.8063354492188	1141.100341796875	1511.504272460938	-266.1529846191406	1188.260498046875	1221.79345703125	-255.9134521484375	1098.579833984375	1215.143310546875	-221.57177734375	1157.802734375	972.3292846679688	-385.3041687011719	1207.948608398438	961.40869140625	-320.4917602539062	1202.846313476562	1148.956298828125	-281.410400390625	1149.967529296875	780.4664306640625	-399.6253051757812	1163.686157226562	863.7559204101562	-411.9822998046875	1209.913330078125	860.9097900390625	-354.1974182128906	941.5269165039062	1781.213989257812	-260.9580688476562	730.60791015625	1781.18603515625	-327.7455749511719	834.4227905273438	1811.888305664062	-399.819091796875	838.3145751953125	1755.144653320312	-179.3966217041016	752.5606689453125	1015.566345214844	-213.6663055419922	1085.88720703125	1018.053771972656	-354.1143188476562	1012.443969726562	1090.56103515625	-412.1425170898438	762.0022583007812	1080.756713867188	-327.5187377929688	861.0159301757812	515.8571166992188	-306.0581665039062	810.4888916015625	654.2359008789062	-259.2632751464844	983.9408569335938	28.69923210144043	-268.95458984375	901.7782592773438	262.2990112304688	-240.2516479492188	986.8858642578125	35.40916442871094	-503.4001159667969	1040.029052734375	39.23435211181641	-433.9984741210938	935.9816284179688	36.33040618896484	-384.9951782226562	1058.092163085938	32.45241546630859	-214.4848480224609	1032.347412109375	550.9815063476562	-505.1822814941406	1067.183349609375	822.578857421875	-434.9903564453125	1224.061889648438	162.73291015625	-196.4510650634766	1089.817504882812	441.7138061523438	-442.1915588378906	1140.678100585938	36.54209518432617	-375.3170776367188	1108.1298828125	59.20346450805664	-312.5020446777344	1223.998657226562	84.40335845947266	-306.4715881347656	1185.654296875	190.0463562011719	-138.3556976318359	
272	2.71	1011.875793457031	1106.561401367188	-201.6901550292969	882.7161254882812	1108.755981445312	-160.5188598632812	945.9962158203125	1146.5751953125	-173.7191467285156	871.1111450195312	1343.5810546875	-385.07763671875	951.5073852539062	1297.8505859375	-144.3960418701172	911.1492919921875	1587.3486328125	-169.5939483642578	871.110107421875	1478.498657226562	-347.9165649414062	1021.790161132812	1410.871826171875	-143.8342590332031	818.5757446289062	1560.351440429688	-132.2160797119141	730.2864379882812	1541.884887695312	-193.6651000976562	675.4671020507812	1409.4736328125	-153.2834625244141	651.047607421875	1191.86962890625	-164.1830596923828	726.056640625	1176.026245117188	-118.6362609863281	655.6646728515625	955.9513549804688	-311.0227966308594	657.8563842773438	915.5401611328125	-231.1383514404297	639.0476684570312	1078.866943359375	-193.91064453125	671.13427734375	770.0523681640625	-365.31982421875	646.513671875	846.7337646484375	-272.1221313476562	638.6653442382812	870.1201782226562	-337.8011474609375	1067.826171875	1579.460205078125	-276.5545043945312	1138.404296875	1511.380249023438	-277.5557861328125	1186	1221.902587890625	-266.118408203125	1096.6767578125	1215.337890625	-230.7925262451172	1154.617431640625	971.7421264648438	-393.6609802246094	1205.418090820312	961.1553955078125	-329.2819213867188	1200.461303710938	1148.962280273438	-291.3264770507812	1146.96533203125	779.9068603515625	-406.7871398925781	1160.362426757812	862.99169921875	-419.6966552734375	1207.135498046875	860.427490234375	-362.3675842285156	939.0391845703125	1781.26806640625	-270.0401306152344	727.4055786132812	1781.174682617188	-334.5909729003906	830.406005859375	1811.746948242188	-407.7563781738281	836.685302734375	1755.28759765625	-187.3102111816406	751.4266967773438	1015.528747558594	-218.0665740966797	1081.056762695312	1018.737365722656	-367.1407470703125	1005.964172363281	1090.840698242188	-422.9615173339844	757.706298828125	1080.660400390625	-332.5440673828125	859.7738037109375	515.3688354492188	-309.6612854003906	809.1407470703125	654.16845703125	-263.2102661132812	984.0587768554688	28.90398979187012	-269.0459899902344	901.4797973632812	262.6145935058594	-242.0485382080078	987.0855712890625	34.86051177978516	-503.8710632324219	1040.095092773438	39.01482009887695	-434.1692199707031	936.0511474609375	36.25949478149414	-385.1236267089844	1058.157104492188	32.67742919921875	-214.5765380859375	1021.450439453125	553.4585571289062	-520.5198974609375	1059.898681640625	824.2384033203125	-449.1658630371094	1217.723999023438	153.4629058837891	-230.5570526123047	1079.96044921875	442.0339660644531	-462.1111755371094	1128.619873046875	36.30051422119141	-412.8826599121094	1098.137817382812	55.71823501586914	-348.0105590820312	1214.203979492188	81.07429504394531	-344.566650390625	1181.314208984375	178.2769927978516	-170.1404724121094	
273	2.72	1010.856018066406	1106.69580078125	-213.0056457519531	882.6280517578125	1108.716918945312	-168.6049041748047	945.4353637695312	1146.469360351562	-183.1221313476562	866.2293090820312	1343.58642578125	-392.5903015136719	950.841064453125	1298.086547851562	-152.5710144042969	909.7675170898438	1587.40576171875	-178.1479949951172	867.224853515625	1478.506591796875	-355.637939453125	1020.608581542969	1410.701293945312	-153.9757995605469	817.7327880859375	1560.606811523438	-139.3899078369141	728.7095336914062	1542.201049804688	-199.5663299560547	673.87060546875	1409.855102539062	-159.2653503417969	647.8173828125	1192.3564453125	-172.2402496337891	723.0259399414062	1175.6376953125	-127.2729797363281	650.2340698242188	958.0969848632812	-321.6927795410156	652.5972290039062	916.7454833984375	-242.3701324462891	635.0935668945312	1079.749755859375	-203.1350402832031	663.9803466796875	772.8121337890625	-378.3871459960938	640.5736694335938	848.5303955078125	-284.0934448242188	632.4329223632812	872.7465209960938	-349.4293518066406	1065.058227539062	1579.265869140625	-287.3203430175781	1135.576416015625	1511.21923828125	-288.9570922851562	1183.60400390625	1221.98046875	-276.4390869140625	1094.658569335938	1215.492431640625	-240.1195068359375	1151.307861328125	971.10400390625	-402.1130065917969	1202.789428710938	960.8984985351562	-338.2212219238281	1197.943603515625	1148.95361328125	-301.3775329589844	1143.78955078125	779.0663452148438	-413.8973693847656	1156.942138671875	862.1744995117188	-427.5147094726562	1204.307495117188	859.9620971679688	-370.6935424804688	936.4508666992188	1781.26220703125	-279.1123046875	724.1357421875	1781.115234375	-341.439697265625	826.3068237304688	1811.53271484375	-415.6792907714844	834.9705200195312	1755.389526367188	-195.2242889404297	750.2770385742188	1015.409729003906	-222.5964202880859	1076.09228515625	1019.43310546875	-380.1033020019531	999.4108276367188	1091.137939453125	-433.6942443847656	753.4310913085938	1080.54443359375	-337.5698852539062	858.4381713867188	514.9024047851562	-313.3833618164062	807.8165283203125	654.0875854492188	-267.2545776367188	984.1646118164062	29.09877014160156	-269.1493225097656	901.2090454101562	262.9185485839844	-243.9263458251953	987.2788696289062	34.34978485107422	-504.3258972167969	1040.137451171875	38.77352523803711	-434.3540954589844	936.118408203125	36.16430282592773	-385.2249755859375	1058.1953125	32.9388313293457	-214.6773071289062	1010.463928222656	555.7636108398438	-535.1605834960938	1052.44384765625	825.8152465820312	-463.0799255371094	1210.007568359375	144.0502777099609	-264.8486938476562	1069.7158203125	442.0808715820312	-481.4622802734375	1114.830810546875	36.40922546386719	-450.0357666015625	1086.44580078125	52.41481018066406	-383.3115844726562	1202.7822265625	77.83286285400391	-382.4032592773438	1175.695922851562	166.3305511474609	-202.2748107910156	
274	2.73	1009.652282714844	1106.830810546875	-224.3473510742188	882.4216918945312	1108.638061523438	-176.76220703125	944.720947265625	1146.251220703125	-192.5554656982422	861.2882080078125	1343.566162109375	-400.0511779785156	950.1456298828125	1298.235473632812	-160.7610473632812	908.3345947265625	1587.400756835938	-186.6631469726562	863.2398681640625	1478.477783203125	-363.3034362792969	1019.305603027344	1410.466918945312	-164.2257232666016	816.9011840820312	1560.806030273438	-146.5027465820312	727.1129150390625	1542.46630859375	-205.3825531005859	672.2598266601562	1410.185791015625	-165.1371459960938	644.588623046875	1192.830200195312	-180.2309875488281	719.964111328125	1175.253173828125	-135.8563385009766	644.8882446289062	960.1410522460938	-332.1248168945312	647.338623046875	917.9229736328125	-253.3382873535156	631.1764526367188	1080.611083984375	-212.2324676513672	656.9862670898438	775.44482421875	-390.9963989257812	634.6610717773438	850.2733764648438	-295.7160034179688	626.3292236328125	875.256591796875	-360.7501220703125	1062.198974609375	1579.058959960938	-298.0967102050781	1132.61083984375	1511.015991210938	-300.35791015625	1181.06689453125	1222.026123046875	-286.878173828125	1092.515625	1215.604736328125	-249.5509033203125	1147.879760742188	970.4158935546875	-410.6778259277344	1200.060791015625	960.6337890625	-347.3139953613281	1195.2861328125	1148.923095703125	-311.5612487792969	1140.4423828125	777.974609375	-420.9778747558594	1153.432983398438	861.3267211914062	-435.4608459472656	1201.420166015625	859.5059204101562	-379.1756896972656	933.7581176757812	1781.189819335938	-288.1700439453125	720.7874145507812	1781.002563476562	-348.2950134277344	822.1351928710938	1811.241943359375	-423.594482421875	833.16796875	1755.446655273438	-203.1391906738281	749.0711669921875	1015.187072753906	-227.3131256103516	1071.008666992188	1020.120361328125	-392.9596557617188	992.8295288085938	1091.453002929688	-444.3392028808594	749.1785888671875	1080.391723632812	-342.6378173828125	857.0208129882812	514.455810546875	-317.2292175292969	806.5247802734375	653.9843139648438	-271.4098510742188	984.2604370117188	29.28799247741699	-269.2662963867188	900.9555053710938	263.1982727050781	-245.891845703125	987.4744262695312	33.86699295043945	-504.7684020996094	1040.167358398438	38.50431442260742	-434.5564880371094	936.1896362304688	36.04965209960938	-385.3036804199219	1058.219604492188	33.24350357055664	-214.7890167236328	999.4577026367188	557.8656616210938	-549.1234130859375	1044.859252929688	827.283935546875	-476.7030639648438	1200.904174804688	134.6105194091797	-299.2270202636719	1059.108154296875	441.8443603515625	-500.264404296875	1099.361206054688	36.90020751953125	-486.5814819335938	1073.12646484375	49.39619445800781	-418.2348937988281	1189.756103515625	74.73623657226562	-419.8269958496094	1168.74365234375	154.305419921875	-234.6617279052734	
